<?xml version="1.0" encoding="UTF-8"?>
<!DOCTYPE svg PUBLIC "-//W3C//DTD SVG 1.1//EN" "http://www.w3.org/Graphics/SVG/1.1/DTD/svg11.dtd">
<svg xmlns="http://www.w3.org/2000/svg" version="1.1" width="192px" height="192px" style="shape-rendering:geometricPrecision; text-rendering:geometricPrecision; image-rendering:optimizeQuality; fill-rule:evenodd; clip-rule:evenodd" xmlns:xlink="http://www.w3.org/1999/xlink">
<g><path style="opacity:0.468" fill="#000000" d="M 58.5,-0.5 C 82.1667,-0.5 105.833,-0.5 129.5,-0.5C 129.5,0.5 129.5,1.5 129.5,2.5C 133.617,3.4165 137.617,3.74983 141.5,3.5C 141.102,7.7589 143.102,9.59224 147.5,9C 148.87,10.4413 149.87,12.108 150.5,14C 152.473,14.4955 154.473,14.6621 156.5,14.5C 156.297,16.3904 156.963,17.8904 158.5,19C 160.5,19.6667 162.5,20.3333 164.5,21C 165.577,24.413 167.744,26.913 171,28.5C 172.044,30.7148 172.71,33.0481 173,35.5C 174.356,36.3802 175.856,36.7135 177.5,36.5C 176.185,41.836 178.185,44.5026 183.5,44.5C 183.335,47.8499 183.502,51.1832 184,54.5C 185.996,54.9963 187.663,55.9963 189,57.5C 189.76,61.2255 189.593,64.8922 188.5,68.5C 188.815,70.483 189.815,71.8163 191.5,72.5C 191.5,86.5 191.5,100.5 191.5,114.5C 189.707,114.884 188.707,116.05 188.5,118C 189.562,121.789 189.729,125.623 189,129.5C 187.493,131.008 185.827,132.341 184,133.5C 183.667,136.5 183.333,139.5 183,142.5C 181.491,143.09 179.991,143.756 178.5,144.5C 177.926,147.177 177.259,149.843 176.5,152.5C 172.852,153.473 171.186,155.807 171.5,159.5C 167.194,159.303 165.194,161.303 165.5,165.5C 161.303,165.194 159.303,167.194 159.5,171.5C 155.807,171.186 153.473,172.852 152.5,176.5C 149.843,177.259 147.177,177.926 144.5,178.5C 143.756,179.991 143.09,181.491 142.5,183C 139.5,183.333 136.5,183.667 133.5,184C 132.341,185.827 131.008,187.493 129.5,189C 125.623,189.729 121.789,189.562 118,188.5C 116.05,188.707 114.884,189.707 114.5,191.5C 100.5,191.5 86.5,191.5 72.5,191.5C 71.8163,189.815 70.483,188.815 68.5,188.5C 64.8922,189.593 61.2255,189.76 57.5,189C 55.9963,187.663 54.9963,185.996 54.5,184C 51.1832,183.502 47.8499,183.335 44.5,183.5C 44.5026,178.185 41.836,176.185 36.5,177.5C 36.7135,175.856 36.3802,174.356 35.5,173C 33.0481,172.71 30.7148,172.044 28.5,171C 26.964,167.964 24.6307,165.797 21.5,164.5C 20.6519,161.112 18.6519,158.779 15.5,157.5C 14.6858,155.234 14.1858,152.9 14,150.5C 9.73966,149.568 7.73966,146.902 8,142.5C 6.64387,141.62 5.14387,141.286 3.5,141.5C 3.74983,137.617 3.4165,133.617 2.5,129.5C 1.5,129.5 0.5,129.5 -0.5,129.5C -0.5,105.833 -0.5,82.1667 -0.5,58.5C 0.396953,59.5981 1.23029,59.5981 2,58.5C 2.71894,54.8546 3.21894,51.1879 3.5,47.5C 4.82207,47.67 5.98873,47.3366 7,46.5C 8.0438,44.2852 8.71047,41.9519 9,39.5C 10.6667,38.5 12.3333,37.5 14,36.5C 14.4935,34.8659 14.6602,33.1992 14.5,31.5C 18.6971,31.8063 20.6971,29.8063 20.5,25.5C 24.5,26.1667 26.1667,24.5 25.5,20.5C 29.8063,20.6971 31.8063,18.6971 31.5,14.5C 33.1992,14.6602 34.8659,14.4935 36.5,14C 37.5,12.3333 38.5,10.6667 39.5,9C 41.9519,8.71047 44.2852,8.0438 46.5,7C 47.3366,5.98873 47.67,4.82207 47.5,3.5C 51.1879,3.21894 54.8546,2.71894 58.5,2C 59.5981,1.23029 59.5981,0.396953 58.5,-0.5 Z M 75.5,8.5 C 87.8378,8.33346 100.171,8.50012 112.5,9C 114.107,10.049 114.773,11.549 114.5,13.5C 118.514,13.3345 122.514,13.5012 126.5,14C 129.215,14.8747 130.548,16.7081 130.5,19.5C 133.518,19.3354 136.518,19.502 139.5,20C 140.79,22.292 142.457,24.292 144.5,26C 131.874,25.4141 119.207,25.4141 106.5,26C 106.022,30.3097 103.688,32.8097 99.5,33.5C 99.2317,36.1194 99.565,38.6194 100.5,41C 105.678,42.3533 110.845,42.8533 116,42.5C 115.516,55.7336 115.349,68.9003 115.5,82C 102.129,81.5262 88.7961,81.3595 75.5,81.5C 74.432,79.8125 74.5986,78.1459 76,76.5C 77.0463,64.9744 76.5463,53.641 74.5,42.5C 78.5293,42.5917 82.5293,42.0917 86.5,41C 88.9789,34.5449 87.3123,29.5449 81.5,26C 76.8452,25.5008 72.1785,25.3342 67.5,25.5C 67.9193,29.5803 66.086,31.5803 62,31.5C 59.7473,31.3687 57.5806,30.8687 55.5,30C 53.9632,28.8904 53.2965,27.3904 53.5,25.5C 49.6371,25.4096 45.9705,25.9096 42.5,27C 42.1667,26.6667 41.8333,26.3333 41.5,26C 44.5524,25.1177 46.8858,23.2844 48.5,20.5C 51.1092,19.7695 53.7759,19.2695 56.5,19C 57.13,17.108 58.13,15.4413 59.5,14C 64.0846,14.2526 68.7513,14.0859 73.5,13.5C 73.3915,11.4862 74.0582,9.81953 75.5,8.5 Z M 153.5,31.5 C 155.089,33.9152 157.256,35.9152 160,37.5C 159.989,41.8255 161.989,44.8255 166,46.5C 166.977,48.74 167.477,51.0733 167.5,53.5C 169.144,53.2865 170.644,53.6198 172,54.5C 172.173,58.5408 172.673,62.5408 173.5,66.5C 176.725,67.4439 178.392,69.6105 178.5,73C 178.5,86.3333 178.5,99.6667 178.5,113C 178.079,115.185 177.579,117.351 177,119.5C 175.644,120.38 174.144,120.714 172.5,120.5C 172.826,124.884 172.492,129.217 171.5,133.5C 169.941,134.074 168.441,134.74 167,135.5C 166.667,138.167 166.333,140.833 166,143.5C 164.644,144.38 163.144,144.714 161.5,144.5C 161.66,146.199 161.494,147.866 161,149.5C 158.333,150.833 156.333,152.833 155,155.5C 153.643,153.265 153.81,150.931 155.5,148.5C 154.96,147.252 154.293,146.085 153.5,145C 150.183,144.502 146.85,144.335 143.5,144.5C 143.333,110.498 143.5,76.4984 144,42.5C 147.309,42.4813 150.642,42.1479 154,41.5C 154.5,40 155,38.5 155.5,37C 154.68,35.1997 154.014,33.3664 153.5,31.5 Z M 30.5,36.5 C 32.2699,37.8559 33.6032,39.6892 34.5,42C 36.4406,42.7429 38.2739,42.5762 40,41.5C 41.8446,42.0495 43.3446,43.0495 44.5,44.5C 44.1924,45.3081 43.6924,45.9747 43,46.5C 42.1778,78.3629 42.3444,110.196 43.5,142C 42.2424,144.799 40.2424,145.633 37.5,144.5C 34.4451,146.905 32.7784,150.072 32.5,154C 32.1667,154.167 31.8333,154.333 31.5,154.5C 30.5344,152.604 30.2011,150.604 30.5,148.5C 29.448,148.649 28.448,148.483 27.5,148C 26.2635,144.011 23.7635,141.178 20,139.5C 19.502,136.518 19.3354,133.518 19.5,130.5C 16.7081,130.548 14.8747,129.215 14,126.5C 13.5012,122.514 13.3345,118.514 13.5,114.5C 11.549,114.773 10.049,114.107 9,112.5C 8.33333,100.167 8.33333,87.8333 9,75.5C 10.1096,73.9632 11.6096,73.2965 13.5,73.5C 14.0859,68.7513 14.2526,64.0846 14,59.5C 15.4413,58.13 17.108,57.13 19,56.5C 19.2695,53.7759 19.7695,51.1092 20.5,48.5C 21.6888,47.5713 23.0222,47.238 24.5,47.5C 24.372,45.3453 24.872,43.3453 26,41.5C 28.3913,40.61 29.8913,38.9433 30.5,36.5 Z M 113.5,96.5 C 114.947,97.6222 115.947,99.1222 116.5,101C 115.182,114.624 115.182,128.291 116.5,142C 116.312,143.882 115.312,145.048 113.5,145.5C 111.267,144.385 109.101,144.385 107,145.5C 105.333,148.5 103.667,151.5 102,154.5C 101.175,156.701 101.675,158.534 103.5,160C 118.959,160.446 134.293,160.613 149.5,160.5C 146.848,161.653 144.848,163.487 143.5,166C 140.833,166.333 138.167,166.667 135.5,167C 134.74,168.441 134.074,169.941 133.5,171.5C 129.217,172.492 124.884,172.826 120.5,172.5C 120.714,174.144 120.38,175.644 119.5,177C 117.351,177.579 115.185,178.079 113,178.5C 99.6667,178.5 86.3333,178.5 73,178.5C 69.6105,178.392 67.4439,176.725 66.5,173.5C 62.5408,172.673 58.5408,172.173 54.5,172C 53.6198,170.644 53.2865,169.144 53.5,167.5C 48.1662,167.668 44.1662,165.502 41.5,161C 56.9052,161.143 72.0718,160.31 87,158.5C 88.8126,149.663 85.3126,144.83 76.5,144C 74.0532,142.771 73.8865,141.271 76,139.5C 76.402,125.755 76.5686,112.088 76.5,98.5C 87.9916,98.613 99.6583,98.4463 111.5,98C 112.416,97.7216 113.082,97.2216 113.5,96.5 Z"/></g>
</svg>
