<svg preserveAspectRatio="xMidYMid meet" data-bbox="-0.001 0.003 175.194 193.493" viewBox="-0.001 0.003 175.194 193.493" height="193.495" width="175.199" xmlns="http://www.w3.org/2000/svg" data-type="color" role="presentation" aria-hidden="true" aria-labelledby="svgcid--cy47kx-n1rl4w"><defs><style>#comp-lcyuj3705 svg [data-color="1"] {fill: #FFFFFF;}</style></defs><title id="svgcid--cy47kx-n1rl4w"/>
    <g>
        <path fill="#ffffff" d="m173.569 10.964-10.649 2.7a1.3 1.3 0 0 1-1.619-1.324l.513-10.973a1.3 1.3 0 0 0-2.307-.884L140.7 23.516a8.894 8.894 0 0 0-1.032 9.275l-5.825 7.132a84.258 84.258 0 0 0-49.184-15.75 84.66 84.66 0 0 0-84.66 84.66 84.661 84.661 0 0 0 84.66 84.663 84.661 84.661 0 0 0 84.663-84.663 84.4 84.4 0 0 0-24.74-59.806l-15.046 18.416a60.617 60.617 0 0 1 16.177 41.39 60.653 60.653 0 0 1-17.88 43.17 60.655 60.655 0 0 1-43.173 17.883 60.643 60.643 0 0 1-43.17-17.883 60.655 60.655 0 0 1-17.883-43.17 60.655 60.655 0 0 1 17.883-43.17A60.655 60.655 0 0 1 84.66 47.78a60.634 60.634 0 0 1 34.216 10.471l-12.207 14.943a41.67 41.67 0 0 0-22.01-6.247 41.887 41.887 0 0 0-41.89 41.886 41.887 41.887 0 0 0 41.89 41.89 41.887 41.887 0 0 0 41.886-41.886 41.7 41.7 0 0 0-9.311-26.327l-15.723 19.25a18.18 18.18 0 0 1 1.429 7.078 18.3 18.3 0 0 1-18.28 18.277 18.3 18.3 0 0 1-18.277-18.277A18.3 18.3 0 0 1 84.66 90.561a18.152 18.152 0 0 1 6.766 1.3l-10.091 12.353a4.784 4.784 0 0 0 .677 6.732c.142.113.289.215.437.312a4.755 4.755 0 0 0 2.585.765 4.772 4.772 0 0 0 3.708-1.757l10.327-12.653 15.108-18.493 12.163-14.893 14.958-18.314 5.723-7.007a9.416 9.416 0 0 0 6.364-.663 8.2 8.2 0 0 0 2.707-2.163l18.807-23.034a1.3 1.3 0 0 0-1.33-2.082Z" data-color="1"/>
    </g>
</svg>