<svg preserveAspectRatio="xMidYMid meet" data-bbox="20.833 16.8 521.335 361.645" viewBox="20.833 16.8 521.335 361.645" xmlns="http://www.w3.org/2000/svg" data-type="color" role="presentation" aria-hidden="true" aria-labelledby="svgcid-jf434o-a4nrqj"><defs><style>#comp-lgp6i4jm svg [data-color="1"] {fill: #FFFFFF;}</style></defs><title id="svgcid-jf434o-a4nrqj"/>
    <g>
        <path d="M282.6 153c-37.5 0-68.1-30.5-68.1-68.1s30.5-68.1 68.1-68.1 68.1 30.5 68.1 68.1-30.6 68.1-68.1 68.1zm0-121.1c-29.3 0-53.1 23.8-53.1 53.1s23.8 53.1 53.1 53.1 53.1-23.8 53.1-53.1-23.8-53.1-53.1-53.1z" fill="#ffffff" data-color="1"/>
        <path d="M94.8 198.7c-1.2 0-2.4-.3-3.5-.9l-21.9-11.5-21.9 11.5c-2.5 1.3-5.6 1.1-7.9-.6-2.3-1.7-3.5-4.5-3-7.3l4.2-24.4-17.7-17.3c-2-2-2.8-5-1.9-7.7.9-2.7 3.2-4.7 6.1-5.1l24.5-3.6 11-22.2c1.3-2.6 3.9-4.2 6.7-4.2s5.5 1.6 6.7 4.2l11 22.2 24.5 3.6c2.8.4 5.2 2.4 6.1 5.1.9 2.7.1 5.7-1.9 7.7L98 165.6l4.2 24.4c.5 2.8-.7 5.7-3 7.3-1.3 1-2.8 1.4-4.4 1.4zm-25.4-28.3c1.2 0 2.4.3 3.5.9l12 6.3-2.3-13.3c-.4-2.4.4-4.9 2.2-6.6l9.7-9.4-13.5-2.1c-2.4-.4-4.6-1.9-5.6-4.1l-6-12.1-6 12.1c-1.1 2.2-3.2 3.7-5.6 4.1l-13.4 1.9 9.7 9.4c1.8 1.7 2.6 4.2 2.2 6.6L54 177.5l12-6.3c1-.5 2.2-.8 3.4-.8z" fill="#ffffff" data-color="1"/>
        <path d="M518.8 198.7c-1.2 0-2.4-.3-3.5-.9l-21.9-11.5-21.9 11.5c-2.5 1.3-5.6 1.1-7.9-.6-2.3-1.7-3.5-4.5-3-7.3l4.2-24.4-17.7-17.3c-2-2-2.8-5-1.9-7.7.9-2.7 3.2-4.7 6.1-5.1l24.5-3.6 11-22.2c1.3-2.6 3.9-4.2 6.7-4.2s5.5 1.6 6.7 4.2l11 22.2 24.5 3.6c2.8.4 5.2 2.4 6.1 5.1.9 2.7.1 5.7-1.9 7.7L522 165.6l4.2 24.4c.5 2.8-.7 5.7-3 7.3-1.3 1-2.8 1.4-4.4 1.4zm-25.4-28.3c1.2 0 2.4.3 3.5.9l12 6.3-2.3-13.3c-.4-2.4.4-4.9 2.2-6.6l9.7-9.4-13.4-1.9c-2.4-.4-4.6-1.9-5.6-4.1l-6-12.1-6 12.1c-1.1 2.2-3.2 3.7-5.6 4.1l-13.4 1.9 9.7 9.4c1.8 1.7 2.6 4.2 2.2 6.6l-2.3 13.3 12-6.3c.9-.6 2.1-.9 3.3-.9z" fill="#ffffff" data-color="1"/>
        <path d="M450 296.6c-1.2 0-2.4-.3-3.5-.9L420.4 282l-26.1 13.7c-2.5 1.3-5.6 1.1-7.9-.6-2.3-1.7-3.5-4.5-3-7.3l5-29.1-21.1-20.6c-2-2-2.8-5-1.9-7.7.9-2.7 3.2-4.7 6.1-5.1l29.2-4.2 13.1-26.4c1.3-2.6 3.9-4.2 6.7-4.2s5.5 1.6 6.7 4.2l13.1 26.4 29.2 4.2c2.8.4 5.2 2.4 6.1 5.1.9 2.7.1 5.7-1.9 7.7l-21.1 20.6 5 29.1c.5 2.8-.7 5.7-3 7.3-1.5 1-3 1.5-4.6 1.5zm-29.6-30.5c1.2 0 2.4.3 3.5.9l16.1 8.5-3.1-18c-.4-2.4.4-4.9 2.2-6.6l13.1-12.7-18.1-2.6c-2.4-.4-4.6-1.9-5.6-4.1l-8.1-16.4-8.1 16.4c-1.1 2.2-3.2 3.7-5.6 4.1l-18.1 2.6 13.1 12.7c1.8 1.7 2.6 4.2 2.2 6.6l-3.1 18 16.1-8.5c1.1-.7 2.3-.9 3.5-.9z" fill="#ffffff" data-color="1"/>
        <path d="M173 296.6c-1.2 0-2.4-.3-3.5-.9L143.4 282l-26.1 13.7c-2.5 1.3-5.6 1.1-7.9-.6-2.3-1.7-3.5-4.5-3-7.3l5-29.1-21.1-20.6c-2-2-2.8-5-1.9-7.7.9-2.7 3.2-4.7 6.1-5.1l29.2-4.2 13.1-26.4c1.3-2.6 3.9-4.2 6.7-4.2s5.5 1.6 6.7 4.2l13.1 26.4 29.2 4.2c2.8.4 5.2 2.4 6.1 5.1.9 2.7.1 5.7-1.9 7.7l-21.1 20.6 5 29.1c.5 2.8-.7 5.7-3 7.3-1.5 1-3 1.5-4.6 1.5zm-29.6-30.5c1.2 0 2.4.3 3.5.9l16.1 8.5-3.1-18c-.4-2.4.4-4.9 2.2-6.6l13.1-12.7-18.1-2.6c-2.4-.4-4.6-1.9-5.6-4.1l-8.1-16.4-8.1 16.4c-1.1 2.2-3.2 3.7-5.6 4.1l-18.1 2.6 13.1 12.7c1.8 1.7 2.6 4.2 2.2 6.6l-3.1 18 16.1-8.5c1.1-.7 2.3-.9 3.5-.9z" fill="#ffffff" data-color="1"/>
        <path d="M328.9 378.4c-1.2 0-2.4-.3-3.5-.9l-43-22.5-42.9 22.6c-2.5 1.3-5.6 1.1-7.9-.6-2.3-1.7-3.5-4.5-3-7.3l8.2-47.8-34.7-33.9c-2-2-2.8-5-1.9-7.7.9-2.7 3.2-4.7 6.1-5.1l48-7 21.5-43.5c1.3-2.6 3.9-4.2 6.7-4.2s5.5 1.6 6.7 4.2l21.5 43.5 48 7c2.8.4 5.2 2.4 6.1 5.1.9 2.7.1 5.7-1.9 7.7L328 321.9l8.2 47.8c.5 2.8-.7 5.7-3 7.3-1.2 1-2.8 1.4-4.3 1.4zM282.4 339c1.2 0 2.4.3 3.5.9l33 17.3-6.3-36.7c-.4-2.4.4-4.9 2.2-6.6l26.7-26-36.9-5.4c-2.4-.4-4.6-1.9-5.6-4.1L282.4 245l-16.5 33.4c-1.1 2.2-3.2 3.7-5.6 4.1l-36.9 5.4 26.7 26c1.8 1.7 2.6 4.2 2.2 6.6l-6.3 36.7 33-17.3c1-.6 2.2-.9 3.4-.9z" fill="#ffffff" data-color="1"/>
        <path d="M237.5 156.7c-46.1 7.7-63.7 46.4-63.7 46.4-4-8-10.3-14.5-10.3-14.5s18.7-32.1 58.5-44l15.5 12.1z" fill="#ffffff" data-color="1"/>
        <path d="M326.5 156.7c46.1 7.7 63.7 46.4 63.7 46.4 4-8 10.3-14.5 10.3-14.5s-18.7-32.1-58.5-44l-15.5 12.1z" fill="#ffffff" data-color="1"/>
        <path d="m205 312.2 15.7 15.9s-36.5-.2-59.7 0-22.7-24.3-22.7-24.3l5.2-3 11 5.4s-3 5.9 8.2 5.9c11.1-.1 42.3.1 42.3.1z" fill="#ffffff" data-color="1"/>
        <path d="m359.9 312.2-15.7 15.9s36.5-.2 59.7 0c23.2.2 22.7-24.3 22.7-24.3l-5.2-3-11 5.4s3 5.9-8.2 5.9-42.3.1-42.3.1z" fill="#ffffff" data-color="1"/>
    </g>
</svg>