<svg preserveAspectRatio="xMidYMid meet" data-bbox="9.5 7.718 128.6 144.964" viewBox="9.5 7.718 128.6 144.964" xmlns="http://www.w3.org/2000/svg" data-type="color" role="presentation" aria-hidden="true" aria-labelledby="svgcid-cd8eys25wpuk"><defs><style>#comp-lgp6ncle svg [data-color="1"] {fill: #FFFFFF;}</style></defs><title id="svgcid-cd8eys25wpuk"/>
    <g>
        <path d="m50.4 103.6 5.9-2 3.8 2.7.1 6.2c2.4 1.1 5 1.9 7.7 2.4l3.7-5h4.6l3.7 5c2.7-.5 5.4-1.4 7.8-2.5l.1-6.2 3.7-2.7 5.9 1.9c2.1-2.2 3.9-4.7 5.4-7.5L99 91l1.3-4.4 5.9-2.1c.1-1.2.2-2.4.2-3.6 0-1.6-.1-3.1-.3-4.7l-5.9-1.9-1.5-4.4 3.6-5.1c-1.4-2.4-3.1-4.7-5-6.7l-5.9 2-3.8-2.7-.1-6.2c-2.4-1.1-5-1.9-7.7-2.4l-3.7 5h-4.6l-3.7-5c-2.7.5-5.4 1.4-7.8 2.5l-.1 6.2-3.7 2.7-5.9-1.9c-2.1 2.2-3.9 4.7-5.4 7.5l3.7 5-1.3 4.4-5.9 2.1c-.1 1.2-.2 2.4-.2 3.6 0 1.6.1 3.1.3 4.7l5.9 1.9 1.5 4.4-3.6 5.1c1.5 2.3 3.1 4.6 5.1 6.6zm23.4-40.5c9.8 0 17.8 8 17.8 17.8s-8 17.8-17.8 17.8S56 90.7 56 80.9s8-17.8 17.8-17.8z" fill="#ffffff" data-color="1"/>
        <path d="m107.2 26-5.8 9.3c15.3 9.4 25.6 26.2 25.6 45.5 0 28.6-22.7 52.1-51.1 53.2v-7c0-2.3-2.5-3.7-4.4-2.6l-9.9 5.7-3 1.7-6.9 4c-2 1.1-2 4 0 5.1l.8.4 9.2 5.3 9.9 5.7c2 1.1 4.4-.3 4.4-2.6v-4.8c34.4-1.1 62.1-29.5 62.1-64.2-.1-23-12.4-43.4-30.9-54.7z" fill="#ffffff" data-color="1"/>
        <path d="M20.5 80.9c0-28.7 22.8-52.1 51.2-53.2v5.9c0 2.3 2.5 3.7 4.4 2.6l9.9-5.7 1.6-.9 8.3-4.8c1.3-.8 1.7-2.3 1.3-3.6-.2-.6-.6-1.2-1.3-1.5L86 13.8l-9.9-5.7c-2-1.1-4.4.3-4.4 2.6v6c-34.5 1-62.2 29.4-62.2 64.2 0 22.7 11.8 42.6 29.6 54.1l5.8-9.3c-14.7-9.6-24.4-26.1-24.4-44.8z" fill="#ffffff" data-color="1"/>
    </g>
</svg>